<svg xmlns="http://www.w3.org/2000/svg" width="300" height="200" viewBox="0 0 300 200"><g><path fill="#fff" d="M271.5 20c0-3.313-2.687-6-6-6h-231c-3.313 0-6 2.687-6 6v134c0 3.313 2.687 6 6 6h231c3.313 0 6-2.687 6-6V20z"/><path stroke="#939FAC" stroke-width="2" stroke-miterlimit="10" d="M271.5 20c0-3.313-2.687-6-6-6h-231c-3.313 0-6 2.687-6 6v134c0 3.313 2.687 6 6 6h231c3.313 0 6-2.687 6-6V20zM106 185h88" fill="none"/><g fill="#fff" stroke="#8ACEE0" stroke-width="2" stroke-miterlimit="10"><path d="M116 96c0 1.104-.896 2-2 2H66c-1.104 0-2-.896-2-2v-6c0-1.104.896-2 2-2h48c1.104 0 2 .896 2 2v6zM176 96c0 1.104-.896 2-2 2h-48c-1.104 0-2-.896-2-2v-6c0-1.104.896-2 2-2h48c1.104 0 2 .896 2 2v6zM236 96c0 1.104-.896 2-2 2h-48c-1.104 0-2-.896-2-2v-6c0-1.104.896-2 2-2h48c1.104 0 2 .896 2 2v6zM236 76c0 1.104-.896 2-2 2H66c-1.104 0-2-.896-2-2v-6c0-1.104.896-2 2-2h168c1.104 0 2 .896 2 2v6zM146 116c0 1.104-.896 2-2 2H66c-1.104 0-2-.896-2-2v-6c0-1.104.896-2 2-2h78c1.104 0 2 .896 2 2v6zM236 116c0 1.104-.896 2-2 2h-78c-1.104 0-2-.896-2-2v-6c0-1.104.896-2 2-2h78c1.104 0 2 .896 2 2v6z"/><circle cx="74.5" cy="41.375" r="10"/><path d="M235 45c0 1.104-.896 2-2 2h-48c-1.104 0-2-.896-2-2v-6c0-1.104.896-2 2-2h48c1.104 0 2 .896 2 2v6z"/></g><path stroke="#929FAB" stroke-width="2" stroke-miterlimit="10" fill="none" d="M28.5 136.798h243"/><path stroke="#939FAC" stroke-width="2" stroke-miterlimit="10" fill="none" d="M129 161v23.625M171 161v23.625"/></g></svg>