<svg xmlns="http://www.w3.org/2000/svg" width="300" height="200" viewBox="0 0 300 200"><path fill="#fff" d="M28.85 166.808c0 3.303 2.68 5.983 5.98 5.983h230.34c3.303 0 5.982-2.68 5.982-5.982V33.193c0-3.303-2.678-5.983-5.983-5.983H34.83c-3.3 0-5.98 2.68-5.98 5.983v133.615z"/><path fill="#9C9C9C" d="M265.168 173.29H34.83c-3.573 0-6.48-2.907-6.48-6.482V33.192c0-3.575 2.907-6.483 6.48-6.483H265.17c3.575 0 6.483 2.908 6.483 6.482v133.615c0 3.576-2.907 6.484-6.482 6.484zM34.83 27.71c-3.022 0-5.48 2.46-5.48 5.482v133.615c0 3.023 2.458 5.483 5.48 5.483H265.17c3.023 0 5.483-2.46 5.483-5.483V33.192c0-3.023-2.46-5.483-5.482-5.483H34.83z"/><path fill="#939FAC" d="M265.168 173.79H34.83c-3.85 0-6.98-3.132-6.98-6.982V33.192c0-3.85 3.13-6.983 6.98-6.983H265.17c3.85 0 6.983 3.132 6.983 6.982v133.615c0 3.85-3.13 6.984-6.982 6.984zM34.83 28.21c-2.746 0-4.98 2.234-4.98 4.982v133.615c0 2.748 2.234 4.983 4.98 4.983H265.17c2.748 0 4.983-2.235 4.983-4.983V33.192c0-2.748-2.234-4.983-4.982-4.983H34.83z"/><path fill="#929FAB" d="M28.85 44.692h242.3v2H28.85z"/><circle fill="#929FAB" cx="41.796" cy="36.569" r="2.455"/><circle fill="#929FAB" cx="50.723" cy="36.569" r="2.455"/><circle fill="#929FAB" cx="59.65" cy="36.569" r="2.455"/><path fill="#8ACEE0" d="M67.598 91.188l-9.47-6.577 2.283-3.284 6.153 4.274 6.58-9.662 3.307 2.25z"/><path stroke="#9C9C9C" stroke-width="2" stroke-miterlimit="10" d="M154.89 87.427" fill="none"/><path fill="#919FAA" d="M85.723 82.19h145.11v2H85.723z"/><path fill="#8ACEE0" d="M67.598 111.188l-9.47-6.577 2.282-3.284 6.153 4.274 6.58-9.662 3.307 2.25z"/><path fill="#919FAA" d="M84.723 104.19h145.11v2H84.723z"/><path fill="#8ACEE0" d="M67.598 133.188l-9.47-6.577 2.282-3.284 6.153 4.274 6.58-9.662 3.307 2.25z"/><path fill="#919FAA" d="M84.723 126.19h145.11v2H84.723z"/></svg>