<svg xmlns="http://www.w3.org/2000/svg" width="300" height="200" viewBox="0 0 300 200"><path stroke="#929FAB" stroke-width="2" stroke-miterlimit="10" d="M138.21 38.66c-12.685 2.854-24.417 8.245-35.517 15.22C92.545 60.224 78.91 71.323 78.91 84.325c0 1.268.317 2.854.95 5.074.635 2.536 2.22 4.44 3.807 6.342 2.854 4.124 6.976 6.66 10.146 10.146 3.172 3.49 7.928 5.707 11.417 8.246 1.27.95 5.074 2.536 2.538 3.804-2.855 1.27-5.708 3.17-8.562 4.756-6.66 4.442-13.953 9.514-14.905 18.075-.632 5.707 1.905 12.37 8.247 12.37 6.025.315 12.685 0 17.44-4.123 5.074-4.44 8.88-9.197 10.15-16.175.633-3.487.633-6.978 0-10.465-.318-1.27-1.27-2.855-1.27-4.122 0-.636 3.487-2.22 4.122-2.854.317-.317 2.853-1.902 2.853-1.27 0 .952-.634 2.22-.634 3.487-.318 3.172-.953 6.026-.636 9.197.318 3.172.95 5.708 2.536 8.56 1.585 3.49 3.806 4.126 7.294 3.807 4.123-.634 6.342-7.926 7.927-11.097 0-.316.32-.636.32-.95v4.12c0 1.27 0 2.22.315 3.49 0 .632.952.95.952 1.268 0 2.222 4.123 1.27 5.075.635 2.535-1.585 4.12-4.12 5.39-6.657 4.44-8.246 8.56-16.49 12.05-25.37.635 3.487 1.905 6.66 3.49 10.147 1.268 2.54-.318 3.806-2.223 6.026-.948.952-1.902 2.537-2.853 3.487-1.905 1.586-6.023 6.027-5.392 8.882.635 2.535 4.44 2.216 6.342 1.9 3.806-.636 7.61-2.22 10.783-4.756 1.586-1.27 2.854-3.488 3.17-5.707v-5.708c0-1.587-.953-2.856-1.27-4.126 0-.633 1.27-2.217 1.586-2.852.636-.952 1.27-1.905 1.9-3.172.64-.95 4.442-8.246 5.077-7.928.95.635.95 3.172 1.585 4.438.636 1.585 1.267 3.49 2.22 4.756.95 1.586-4.124 5.392-5.072 6.66-2.538 3.488-6.66 13.953 1.268 13.32 6.023-.634 13.636-6.342 13.95-13.003 0-1.9-.63-3.486-.946-5.072-.32-.95 1.9-1.584 2.853-1.584 2.535-.95 5.707-.636 8.563-.636 6.343 0 13 1.586 16.807 7.612 1.905 3.172 1.586 7.294-.95 9.83-.636.634-3.49 2.22-3.17 3.487.63 1.27 4.12-.634 4.437-.952 5.706-3.807 5.706-12.366 1.586-17.44-5.072-6.343-13.32-8.88-21.248-8.244-3.486.315-6.342.95-9.513 2.22-2.853 1.268-4.438-3.49-4.757-6.026-.315-2.537-.63-6.025.32-8.88.634-2.537 2.535-5.39-1.268-5.708-1.904 0-6.026-.634-7.297.952-1.585 1.585-1.27 5.073-2.216 6.976-2.224 5.39-5.396 10.466-8.248 15.537-.95-2.22-1.904-4.756-2.22-7.292-.315-3.17.635-6.025 1.586-8.88.315-.952.634-1.27 0-2.22-.95-.634-1.585-.95-2.536-.95-2.854 0-6.343-.317-7.294 2.536-2.22 6.658-5.075 13.32-8.246 19.66-2.22 4.757-4.123 10.15-6.977 14.586.317-4.12.95-7.928 2.22-11.733.633-2.535 1.9-5.388 1.9-8.242 0-2.536-3.487-2.22-5.072-2.22 0-5.392-.95-9.83-7.294-8.562-3.488.633-6.025 2.854-8.562 5.39-3.17 3.172-6.658 5.393-10.782 7.613-1.902.95-3.805 2.22-5.707 3.172-1.585.95-1.903.636-3.17-.636-1.903-1.9-3.807-3.487-5.71-5.072-5.072-4.125-11.098-7.927-14.27-13.32-6.342-10.782 2.856-22.197 11.417-28.223 10.782-7.61 22.198-13.634 35.2-16.806 5.39-1.268 12.05-1.268 17.44-.634 4.125.634 9.83 3.806 9.83 8.246.638 14.905-16.172 25.37-29.174 27.907-6.342 1.268-12.685 2.22-18.71-.953-1.268-.633-6.024-5.39-5.073-.95.952 3.803 5.074 6.024 8.245 7.292 6.342 2.538 14.587 1.585 21.247 0 5.074-.95 10.147-2.854 14.59-5.39 5.388-3.49 10.46-8.246 13.95-13.956 3.807-6.342 6.343-16.17 1.586-22.83-3.805-5.393-10.147-8.564-16.488-9.515-6.026.322-13.954.004-19.663 1.59zM-335.45-87.38c-.316 5.072-2.854 10.147-4.756 14.586-.95 2.536-1.9 5.073-3.17 7.612-1.27 2.537-2.855 3.17-3.488 0-1.27-5.71.95-12.368 3.804-17.44 1.27-2.22 2.538-4.126 4.44-5.71 1.584-.633 3.17-1.902 3.17.953zm49.787 13c-.316 3.807-2.537 5.708-5.71 7.294.317-2.535 1.587-4.756 2.854-6.658 1.27-2.22 3.17-4.757 2.855-.635zm-80.866 4.442c1.27 6.975-1.585 13.635-6.66 18.073-3.17 2.855-13.317 7.61-12.684-.316.317-3.487 2.22-6.344 4.44-8.88.952-.95 3.488-4.122 5.39-4.44.635 0 .635-.95 1.27-.95 1.268 0 3.17-1.902 4.123-2.537.95-.32 4.12-3.49 4.12-.95z" fill="none"/></svg>