<svg xmlns="http://www.w3.org/2000/svg" width="300" height="200" viewBox="0 0 300 200"><path stroke="#929FAB" stroke-width="2" stroke-miterlimit="10" stroke-dasharray="6.0842,6.0842" d="M114.03 117.367c.193 1.088-.534 2.125-1.62 2.317l-69.43 12.242c-1.088.192-2.125-.535-2.317-1.622L25.47 44.134c-.193-1.09.534-2.126 1.62-2.318l69.43-12.242c1.088-.192 2.125.535 2.317 1.622l15.194 86.17z" fill="none" opacity=".5"/><g opacity=".5"><path fill="#fff" d="M120.67 116.087c.097 1.1-.717 2.07-1.817 2.167l-70.232 6.144c-1.1.096-2.07-.718-2.166-1.818l-7.626-87.167c-.096-1.1.718-2.07 1.818-2.167l70.232-6.144c1.1-.096 2.07.718 2.167 1.818l7.626 87.167z"/><path stroke="#929FAB" stroke-width="2" stroke-linecap="round" stroke-linejoin="round" stroke-dasharray="6.0842,6.0842" d="M120.67 116.087c.097 1.1-.717 2.07-1.817 2.167l-70.232 6.144c-1.1.096-2.07-.718-2.166-1.818l-7.626-87.167c-.096-1.1.718-2.07 1.818-2.167l70.232-6.144c1.1-.096 2.07.718 2.167 1.818l7.626 87.167z" fill="none"/></g><path fill="#FCFCFC" stroke="#929FAB" stroke-width="2" stroke-miterlimit="10" d="M127 124.5c0 1.105-.895 2-2 2H54.5c-1.105 0-2-.895-2-2V37c0-1.105.895-2 2-2H125c1.105 0 2 .895 2 2v87.5z"/><text transform="translate(68.834 86.608)" fill="#8ACEE0" font-family="'MyriadPro-Regular'" font-size="20.32">.scss</text><path fill="#fff" stroke="#929FAB" stroke-width="2" stroke-miterlimit="10" stroke-opacity=".5" d="M131.99 96.135S154.314 86.1 169.623 107"/><path stroke="#929FAB" stroke-width="2" stroke-miterlimit="10" stroke-opacity=".5" fill="none" d="M163.657 107.633l7 .087.086-7"/><path stroke="#929FAB" stroke-width="2" stroke-miterlimit="10" d="M157.375 150.396" fill="none"/><path fill="#FCFCFC" stroke="#929FAB" stroke-width="2" stroke-miterlimit="10" d="M252 165.5c0 1.105-.895 2-2 2h-70.5c-1.105 0-2-.895-2-2V78c0-1.105.895-2 2-2H250c1.105 0 2 .895 2 2v87.5z"/><text transform="translate(197.834 127.608)" fill="#8ACEE0" font-family="'MyriadPro-Regular'" font-size="20.32">.css</text></svg>