<svg xmlns="http://www.w3.org/2000/svg" width="300" height="200" viewBox="0 0 300 200"><path fill="#fff" d="M274.278 28.187c0-2.793-2.266-5.06-5.058-5.06H74.464c-2.794 0-5.06 2.267-5.06 5.06v112.975c0 2.793 2.265 5.06 5.06 5.06H269.22c2.792 0 5.058-2.267 5.058-5.06V28.187z"/><path stroke="#939FAC" stroke-width="2" stroke-miterlimit="10" d="M274.278 28.187c0-2.793-2.266-5.06-5.058-5.06H74.464c-2.794 0-5.06 2.267-5.06 5.06v112.975c0 2.793 2.265 5.06 5.06 5.06H269.22c2.792 0 5.058-2.267 5.058-5.06V28.187zM134.744 167.297h74.192" fill="none"/><path stroke="#929FAB" stroke-width="2" stroke-miterlimit="10" fill="none" d="M69.406 126.66h204.872"/><path stroke="#939FAC" stroke-width="2" stroke-miterlimit="10" fill="none" d="M154.135 147.06v19.92M189.545 147.06v19.92"/><path fill="#fff" d="M124.568 177.294c1.692 0 3.062-1.37 3.062-3.06V56.313c0-1.692-1.37-3.063-3.062-3.063H56.166c-1.69 0-3.063 1.372-3.063 3.063v117.92c0 1.69 1.372 3.06 3.063 3.06h68.402z"/><path stroke="#939FAC" stroke-width="2" stroke-miterlimit="10" d="M124.568 177.294c1.692 0 3.062-1.37 3.062-3.06V56.313c0-1.692-1.37-3.063-3.062-3.063H56.166c-1.69 0-3.063 1.372-3.063 3.063v117.92c0 1.69 1.372 3.06 3.063 3.06h68.402z" fill="none"/><path stroke="#929FAB" stroke-width="2" stroke-miterlimit="10" fill="none" d="M53.103 63.194h74.527M53.103 165.156h74.527"/><path fill="#fff" d="M59.82 166.648c.94 0 1.703-.764 1.703-1.704V99.368c0-.94-.76-1.704-1.702-1.704H21.78c-.94 0-1.704.763-1.704 1.704v65.576c0 .94.764 1.704 1.705 1.704h38.04z"/><path stroke="#939FAC" stroke-width="2" stroke-miterlimit="10" d="M59.82 166.648c.94 0 1.703-.764 1.703-1.704V99.368c0-.94-.76-1.704-1.702-1.704H21.78c-.94 0-1.704.763-1.704 1.704v65.576c0 .94.764 1.704 1.705 1.704h38.04z" fill="none"/><path stroke="#929FAB" stroke-width="2" stroke-miterlimit="10" d="M61.522 103.194M20.077 103.194M20.077 159.897h41.445" fill="none"/><g><path fill="#8ACEE0" d="M191.017 95.514h-9.562c-.488 0-.958-.193-1.303-.54-.35-.35-.544-.815-.542-1.306v-9.56c-.002-1.022.824-1.848 1.85-1.85 1.022.002 1.848.828 1.848 1.848v5.098l.013-.013c6.332-6.33 6.327-16.626 0-22.956-3.065-3.064-7.142-4.753-11.48-4.757-1.017 0-1.845-.828-1.845-1.847-.002-1.023.824-1.85 1.846-1.847 5.325-.003 10.328 2.072 14.092 5.836 7.77 7.77 7.773 20.413.004 28.183l-.013.013 5.094-.003c1.022.003 1.85.83 1.85 1.85-.003 1.025-.83 1.852-1.85 1.85zM171.846 97.64c-5.327 0-10.33-2.074-14.095-5.84-7.77-7.77-7.77-20.41 0-28.18l.014-.014h-5.098c-1.02 0-1.846-.826-1.85-1.85.004-1.02.83-1.85 1.85-1.85h9.562c.49 0 .96.197 1.308.543.346.345.543.817.543 1.307l-.005 9.56c0 1.018-.826 1.845-1.85 1.85-.51 0-.97-.208-1.307-.544-.334-.334-.54-.794-.54-1.304v-5.1l-.013.014c-6.33 6.33-6.326 16.626 0 22.952 3.07 3.07 7.144 4.76 11.476 4.76 1.022 0 1.85.83 1.85 1.85 0 1.018-.825 1.845-1.844 1.844zM103.237 127.22H96.82c-.33 0-.643-.13-.875-.362-.235-.234-.365-.548-.363-.878v-6.416c0-.685.553-1.24 1.24-1.24.688 0 1.242.556 1.242 1.24v3.422l.01-.01c4.248-4.248 4.245-11.16-.002-15.41-2.057-2.056-4.793-3.187-7.703-3.19-.685 0-1.24-.557-1.24-1.24-.002-.687.553-1.24 1.24-1.238 3.572-.002 6.93 1.392 9.457 3.918 5.215 5.215 5.218 13.702.002 18.917l-.01.007h3.42c.686.002 1.24.556 1.24 1.24-.004.686-.56 1.24-1.243 1.24zM90.37 128.647c-3.576 0-6.933-1.393-9.46-3.92-5.215-5.216-5.214-13.698 0-18.913l.01-.01H77.5c-.686 0-1.24-.556-1.242-1.24 0-.687.556-1.242 1.24-1.242h6.417c.33 0 .645.132.878.364.232.233.364.55.363.878v6.414c0 .685-.556 1.24-1.242 1.24-.342 0-.653-.137-.877-.362-.225-.224-.362-.534-.362-.875v-3.42l-.008.01c-4.25 4.247-4.246 11.157 0 15.403 2.06 2.06 4.794 3.193 7.702 3.193.683 0 1.24.56 1.24 1.24 0 .687-.556 1.24-1.24 1.24zM49.23 139.98l-4.203-.002c-.215.003-.42-.083-.573-.234-.153-.154-.24-.36-.238-.575v-4.202c0-.45.362-.813.812-.814.45 0 .812.364.813.813v2.242l.007-.008c2.783-2.783 2.78-7.31 0-10.09-1.348-1.35-3.14-2.09-5.045-2.092-.447-.002-.81-.365-.812-.812 0-.45.362-.812.812-.812 2.34-.002 4.538.91 6.193 2.565 3.415 3.416 3.417 8.975 0 12.39l-.004.005h2.24c.45.002.812.365.812.812 0 .45-.364.814-.813.814zM40.8 140.916c-2.34 0-4.54-.913-6.193-2.567-3.416-3.416-3.416-8.973 0-12.388l.005-.005h-2.24c-.448 0-.812-.365-.813-.812 0-.45.364-.814.813-.814l4.2.003c.217-.002.423.086.575.238.152.152.24.358.24.575v4.2c-.002.45-.365.812-.814.813-.225 0-.427-.09-.576-.24-.146-.145-.236-.348-.236-.57v-2.24l-.005.004c-2.783 2.78-2.782 7.31 0 10.09 1.348 1.348 3.14 2.09 5.044 2.09.45.002.813.366.813.813 0 .448-.363.81-.812.81z"/></g></svg>