<svg xmlns="http://www.w3.org/2000/svg" width="300" height="200" viewBox="0 0 300 200"><g fill="#fff" stroke-width="2" stroke-miterlimit="10"><path opacity=".5" stroke="#F75925" enable-background="new" d="M176.005 106.398c3.03.787 4.847 3.882 4.062 6.908l-13.883 53.475c-.787 3.03-3.88 4.85-6.908 4.06l-118.6-30.785c-3.03-.787-4.848-3.88-4.062-6.908l13.882-53.475c.786-3.03 3.88-4.847 6.91-4.062l118.6 30.788z"/><path opacity=".5" stroke="#71BE48" enable-background="new" d="M187.876 110.344c2.82 1.35 4.017 4.733 2.665 7.557l-23.845 49.835c-1.352 2.824-4.734 4.02-7.557 2.666l-110.53-52.888c-2.82-1.352-4.016-4.734-2.665-7.556L69.79 60.12c1.35-2.823 4.734-4.016 7.557-2.665l110.53 52.89z"/><path opacity=".5" stroke="#DD318A" enable-background="new" d="M199.15 117.89c2.428 1.974 2.797 5.544.824 7.972l-34.826 42.886c-1.973 2.43-5.54 2.8-7.97.827L62.06 92.33c-2.428-1.973-2.797-5.543-.826-7.97l34.828-42.887c1.973-2.43 5.542-2.8 7.97-.827l95.118 77.245z"/><path opacity=".5" stroke="#8244A7" enable-background="new" d="M209.57 129.338c1.87 2.51 1.354 6.06-1.153 7.93l-44.282 33.035c-2.51 1.87-6.06 1.354-7.93-1.156L82.938 70.934c-1.87-2.508-1.354-6.06 1.153-7.93l44.284-33.034c2.508-1.87 6.06-1.354 7.93 1.154l73.266 98.214z"/><path opacity=".5" stroke="#00A6C9" enable-background="new" d="M217.154 139.066c1.355 2.82.17 6.207-2.646 7.562l-49.78 23.963c-2.82 1.358-6.206.173-7.56-2.647L104.02 57.538c-1.357-2.82-.17-6.206 2.647-7.562l49.778-23.962c2.82-1.357 6.207-.17 7.564 2.648l53.144 110.404z"/><path opacity=".5" stroke="#2A89EC" enable-background="new" d="M220.596 153.568c.66 3.06-1.285 6.074-4.342 6.736l-54 11.67c-3.06.66-6.074-1.28-6.734-4.342L129.633 47.87c-.66-3.06 1.283-6.075 4.34-6.737l54-11.67c3.06-.66 6.074 1.283 6.735 4.342l25.888 119.763z"/><path stroke="#939FAC" d="M221.568 166.65c0 3.13-2.537 5.666-5.666 5.666h-55.246c-3.13 0-5.666-2.536-5.666-5.666V44.12c0-3.13 2.537-5.667 5.666-5.667h55.246c3.13 0 5.666 2.537 5.666 5.667v122.53z"/><circle stroke="#939FAC" cx="165.75" cy="161.75" r="4.75"/></g></svg>