<svg xmlns="http://www.w3.org/2000/svg" width="300" height="200" viewBox="0 0 300 200"><path fill="#fff" d="M28.85 166.808c0 3.303 2.68 5.983 5.98 5.983H265.17c3.305 0 5.983-2.68 5.983-5.982V33.192c0-3.303-2.676-5.983-5.982-5.983H34.83c-3.3 0-5.98 2.68-5.98 5.982v133.616z"/><path stroke="#939FAC" stroke-width="2" stroke-miterlimit="10" d="M28.85 166.808c0 3.303 2.68 5.983 5.98 5.983H265.17c3.305 0 5.983-2.68 5.983-5.982V33.192c0-3.303-2.676-5.983-5.982-5.983H34.83c-3.3 0-5.98 2.68-5.98 5.982v133.616z" fill="none"/><path stroke="#929FAB" stroke-width="2" stroke-miterlimit="10" fill="none" d="M271.15 45.692H28.85"/><circle fill="#929FAB" cx="41.796" cy="36.569" r="2.455"/><circle fill="#929FAB" cx="50.723" cy="36.569" r="2.455"/><circle fill="#929FAB" cx="59.65" cy="36.569" r="2.455"/><path stroke="#929FAB" stroke-width="2" stroke-miterlimit="10" fill="none" d="M271.15 123.654H28.85M204.404 123.654v49.137M37.644 137.255H74.9"/><path stroke="#8ACEE0" stroke-width="2" stroke-miterlimit="10" fill="none" d="M49.47 143.17h49.87"/><path stroke="#929FAB" stroke-width="2" stroke-miterlimit="10" fill="none" d="M49.47 149.082H95.4M37.644 154.995h30.553"/><path stroke="#8ACEE0" stroke-width="2" stroke-miterlimit="10" fill="none" d="M210.318 139.62h24.64M210.318 145.534h24.64"/><path stroke="#919FAA" stroke-width="2" stroke-miterlimit="10" fill="none" d="M210.318 133.707h49.673"/></svg>