<?xml version="1.0" encoding="utf-8"?>
<!-- Generator: Adobe Illustrator 16.0.0, SVG Export Plug-In . SVG Version: 6.00 Build 0)  -->
<!DOCTYPE svg PUBLIC "-//W3C//DTD SVG 1.1//EN" "http://www.w3.org/Graphics/SVG/1.1/DTD/svg11.dtd">
<svg version="1.1" id="Layer_1" xmlns="http://www.w3.org/2000/svg" xmlns:xlink="http://www.w3.org/1999/xlink" x="0px" y="0px"
	 width="300px" height="200px" viewBox="0 0 300 200" enable-background="new 0 0 300 200" xml:space="preserve">
<g id="Layer_1_1_">
	<path opacity="0.5" fill="#FFFFFF" stroke="#F75925" stroke-width="2" stroke-miterlimit="10" enable-background="new    " d="
		M176.005,106.398c3.029,0.787,4.847,3.882,4.062,6.908l-13.883,53.475c-0.787,3.029-3.881,4.848-6.908,4.06L40.675,140.055
		c-3.029-0.787-4.847-3.88-4.061-6.908l13.882-53.475c0.786-3.029,3.879-4.847,6.909-4.062L176.005,106.398z"/>
	<path opacity="0.5" fill="#FFFFFF" stroke="#71BE48" stroke-width="2" stroke-miterlimit="10" enable-background="new    " d="
		M187.876,110.344c2.819,1.35,4.017,4.733,2.665,7.557l-23.846,49.834c-1.352,2.824-4.734,4.019-7.557,2.666L48.608,117.512
		c-2.821-1.352-4.016-4.734-2.665-7.556L69.789,60.12c1.351-2.823,4.735-4.016,7.558-2.665L187.876,110.344z"/>
	<path opacity="0.5" fill="#FFFFFF" stroke="#DD318A" stroke-width="2" stroke-miterlimit="10" enable-background="new    " d="
		M199.15,117.891c2.428,1.973,2.797,5.543,0.824,7.971l-34.826,42.886c-1.973,2.431-5.541,2.8-7.971,0.827L62.061,92.33
		c-2.429-1.973-2.798-5.543-0.827-7.971l34.828-42.886c1.973-2.43,5.542-2.799,7.971-0.827L199.15,117.891z"/>
	<path opacity="0.5" fill="#FFFFFF" stroke="#8244A7" stroke-width="2" stroke-miterlimit="10" enable-background="new    " d="
		M209.57,129.338c1.871,2.51,1.354,6.059-1.153,7.93l-44.282,33.035c-2.51,1.87-6.06,1.354-7.93-1.156L82.938,70.934
		c-1.871-2.508-1.354-6.059,1.153-7.93l44.283-33.034c2.508-1.87,6.059-1.354,7.931,1.154L209.57,129.338z"/>
	<path opacity="0.5" fill="#FFFFFF" stroke="#00A6C9" stroke-width="2" stroke-miterlimit="10" enable-background="new    " d="
		M217.154,139.066c1.355,2.819,0.171,6.207-2.646,7.562l-49.779,23.963c-2.82,1.357-6.207,0.172-7.562-2.648L104.02,57.538
		c-1.357-2.819-0.171-6.206,2.647-7.562l49.778-23.962c2.82-1.357,6.207-0.171,7.564,2.648L217.154,139.066z"/>
	<path opacity="0.5" fill="#FFFFFF" stroke="#2A89EC" stroke-width="2" stroke-miterlimit="10" enable-background="new    " d="
		M220.596,153.568c0.659,3.06-1.285,6.074-4.342,6.736l-54,11.67c-3.061,0.661-6.074-1.281-6.734-4.342L129.633,47.869
		c-0.661-3.059,1.283-6.074,4.341-6.736l53.999-11.67c3.06-0.661,6.074,1.283,6.735,4.342L220.596,153.568z"/>
	<path fill="#FFFFFF" stroke="#939FAC" stroke-width="2" stroke-miterlimit="10" d="M221.568,166.65c0,3.13-2.537,5.666-5.666,5.666
		h-55.246c-3.129,0-5.666-2.536-5.666-5.666V44.12c0-3.129,2.537-5.667,5.666-5.667h55.246c3.129,0,5.666,2.537,5.666,5.667V166.65z
		"/>
	<circle fill="#FFFFFF" stroke="#939FAC" stroke-width="2" stroke-miterlimit="10" cx="165.75" cy="161.75" r="4.75"/>
</g>
<g id="Layer_2" display="none">
	<g display="inline">
		<path fill="#FFFFFF" d="M262,29c0-3.313-2.688-6-6-6H43c-3.313,0-6,2.687-6,6v104c0,3.312,2.687,6,6,6h213c3.312,0,6-2.688,6-6V29
			z"/>
		<path fill="none" stroke="#939FAC" stroke-width="2" stroke-miterlimit="10" d="M262,29c0-3.313-2.688-6-6-6H43
			c-3.313,0-6,2.687-6,6v104c0,3.312,2.687,6,6,6h213c3.312,0,6-2.688,6-6V29z"/>
	</g>
</g>
</svg>
