<?xml version="1.0" encoding="utf-8"?>
<!-- Generator: Adobe Illustrator 16.0.0, SVG Export Plug-In . SVG Version: 6.00 Build 0)  -->
<!DOCTYPE svg PUBLIC "-//W3C//DTD SVG 1.1//EN" "http://www.w3.org/Graphics/SVG/1.1/DTD/svg11.dtd">
<svg version="1.1" id="Layer_1" xmlns="http://www.w3.org/2000/svg" xmlns:xlink="http://www.w3.org/1999/xlink" x="0px" y="0px"
	 width="300px" height="200px" viewBox="0 0 300 200" enable-background="new 0 0 300 200" xml:space="preserve">
<g opacity="0.5">
	<path fill="none" stroke="#929FAB" stroke-width="2" stroke-miterlimit="10" stroke-dasharray="6.0842,6.0842" d="M112.031,118.367
		c0.192,1.088-0.535,2.125-1.622,2.316L40.98,132.926c-1.088,0.192-2.125-0.535-2.317-1.621L23.469,45.133
		c-0.192-1.088,0.535-2.125,1.622-2.317L94.52,30.574c1.088-0.192,2.125,0.535,2.317,1.622L112.031,118.367z"/>
</g>
<g opacity="0.5">
	<path fill="#FFFFFF" d="M118.671,117.087c0.096,1.101-0.718,2.07-1.818,2.167l-70.232,6.145c-1.1,0.096-2.07-0.719-2.167-1.818
		l-7.626-87.167c-0.096-1.1,0.718-2.07,1.818-2.167l70.232-6.144c1.1-0.096,2.07,0.718,2.167,1.818L118.671,117.087z"/>
	
		<path fill="none" stroke="#929FAB" stroke-width="2" stroke-linecap="round" stroke-linejoin="round" stroke-dasharray="6.0842,6.0842" d="
		M118.671,117.087c0.096,1.101-0.718,2.07-1.818,2.167l-70.232,6.145c-1.1,0.096-2.07-0.719-2.167-1.818l-7.626-87.167
		c-0.096-1.1,0.718-2.07,1.818-2.167l70.232-6.144c1.1-0.096,2.07,0.718,2.167,1.818L118.671,117.087z"/>
</g>
<g>
	<path fill="#FFFFFF" stroke="#929FAB" stroke-width="2" stroke-miterlimit="10" d="M125,125.5c0,1.105-0.895,2-2,2H52.5
		c-1.105,0-2-0.895-2-2V38c0-1.105,0.895-2,2-2H123c1.105,0,2,0.895,2,2V125.5z"/>
	<g enable-background="new    ">
		<path fill="#8ACEE0" d="M67.851,85.961c0-1.098,0.752-1.89,1.83-1.89c1.077,0,1.809,0.772,1.809,1.89
			c0,1.077-0.731,1.87-1.829,1.87C68.603,87.831,67.851,87.038,67.851,85.961z"/>
		<path fill="#8ACEE0" d="M73.337,84.904c0.569,0.346,1.748,0.752,2.662,0.752c0.935,0,1.321-0.325,1.321-0.833
			c0-0.509-0.305-0.752-1.463-1.139c-2.053-0.69-2.845-1.809-2.825-2.987c0-1.85,1.585-3.252,4.044-3.252
			c1.159,0,2.195,0.264,2.805,0.568l-0.549,2.135c-0.447-0.244-1.301-0.569-2.154-0.569c-0.752,0-1.179,0.305-1.179,0.813
			c0,0.467,0.386,0.711,1.606,1.138c1.89,0.65,2.683,1.605,2.703,3.069c0,1.85-1.463,3.211-4.309,3.211
			c-1.301,0-2.459-0.284-3.211-0.691L73.337,84.904z"/>
		<path fill="#8ACEE0" d="M89.635,87.363c-0.549,0.244-1.585,0.447-2.765,0.447c-3.211,0-5.264-1.951-5.264-5.081
			c0-2.906,1.992-5.284,5.691-5.284c0.813,0,1.707,0.142,2.357,0.386l-0.488,2.297c-0.366-0.163-0.915-0.305-1.728-0.305
			c-1.626,0-2.683,1.158-2.663,2.784c0,1.829,1.22,2.784,2.724,2.784c0.731,0,1.301-0.121,1.768-0.305L89.635,87.363z"/>
		<path fill="#8ACEE0" d="M91.32,84.904c0.569,0.346,1.748,0.752,2.662,0.752c0.935,0,1.321-0.325,1.321-0.833
			c0-0.509-0.305-0.752-1.463-1.139c-2.053-0.69-2.845-1.809-2.825-2.987c0-1.85,1.585-3.252,4.044-3.252
			c1.159,0,2.195,0.264,2.805,0.568l-0.549,2.135c-0.447-0.244-1.301-0.569-2.154-0.569c-0.752,0-1.179,0.305-1.179,0.813
			c0,0.467,0.386,0.711,1.606,1.138c1.89,0.65,2.683,1.605,2.703,3.069c0,1.85-1.463,3.211-4.309,3.211
			c-1.301,0-2.459-0.284-3.211-0.691L91.32,84.904z"/>
		<path fill="#8ACEE0" d="M100.138,84.904c0.569,0.346,1.748,0.752,2.663,0.752c0.935,0,1.321-0.325,1.321-0.833
			c0-0.509-0.305-0.752-1.463-1.139c-2.053-0.69-2.846-1.809-2.825-2.987c0-1.85,1.585-3.252,4.045-3.252
			c1.158,0,2.195,0.264,2.805,0.568l-0.549,2.135c-0.447-0.244-1.301-0.569-2.154-0.569c-0.752,0-1.179,0.305-1.179,0.813
			c0,0.467,0.386,0.711,1.606,1.138c1.89,0.65,2.683,1.605,2.703,3.069c0,1.85-1.463,3.211-4.309,3.211
			c-1.301,0-2.459-0.284-3.211-0.691L100.138,84.904z"/>
	</g>
</g>
<path fill="#FFFFFF" stroke="#929FAB" stroke-width="2" stroke-miterlimit="10" stroke-opacity="0.5" d="M129.991,97.135
	c0,0,22.321-10.036,37.631,10.865"/>
<polyline fill="none" stroke="#929FAB" stroke-width="2" stroke-miterlimit="10" stroke-opacity="0.5" points="161.657,108.633 
	168.656,108.721 168.743,101.721 "/>
<path fill="none" stroke="#929FAB" stroke-width="2" stroke-miterlimit="10" d="M155.375,151.396"/>
<g>
	<path fill="#FFFFFF" stroke="#929FAB" stroke-width="2" stroke-miterlimit="10" d="M250,166.5c0,1.105-0.895,2-2,2h-70.5
		c-1.105,0-2-0.895-2-2V79c0-1.105,0.895-2,2-2H248c1.105,0,2,0.895,2,2V166.5z"/>
	<g enable-background="new    ">
		<path fill="#8ACEE0" d="M196.851,126.961c0-1.098,0.752-1.89,1.829-1.89c1.078,0,1.809,0.772,1.809,1.89
			c0,1.077-0.73,1.87-1.828,1.87C197.603,128.831,196.851,128.038,196.851,126.961z"/>
		<path fill="#8ACEE0" d="M209.816,128.363c-0.549,0.244-1.585,0.447-2.764,0.447c-3.211,0-5.264-1.951-5.264-5.081
			c0-2.906,1.991-5.284,5.69-5.284c0.813,0,1.707,0.142,2.357,0.386l-0.487,2.297c-0.366-0.163-0.915-0.305-1.729-0.305
			c-1.625,0-2.682,1.158-2.662,2.784c0,1.829,1.22,2.784,2.724,2.784c0.731,0,1.301-0.121,1.769-0.305L209.816,128.363z"/>
		<path fill="#8ACEE0" d="M211.502,125.904c0.568,0.346,1.747,0.752,2.662,0.752c0.935,0,1.32-0.325,1.32-0.833
			c0-0.509-0.305-0.752-1.463-1.139c-2.053-0.69-2.846-1.809-2.825-2.987c0-1.85,1.585-3.252,4.044-3.252
			c1.159,0,2.195,0.264,2.806,0.568l-0.549,2.135c-0.447-0.244-1.301-0.569-2.154-0.569c-0.753,0-1.179,0.305-1.179,0.813
			c0,0.467,0.386,0.711,1.605,1.138c1.891,0.65,2.683,1.605,2.703,3.069c0,1.85-1.463,3.211-4.309,3.211
			c-1.301,0-2.459-0.284-3.211-0.691L211.502,125.904z"/>
		<path fill="#8ACEE0" d="M220.32,125.904c0.568,0.346,1.747,0.752,2.662,0.752c0.935,0,1.32-0.325,1.32-0.833
			c0-0.509-0.305-0.752-1.463-1.139c-2.053-0.69-2.846-1.809-2.825-2.987c0-1.85,1.585-3.252,4.044-3.252
			c1.159,0,2.195,0.264,2.806,0.568l-0.549,2.135c-0.447-0.244-1.301-0.569-2.154-0.569c-0.753,0-1.179,0.305-1.179,0.813
			c0,0.467,0.386,0.711,1.605,1.138c1.891,0.65,2.683,1.605,2.703,3.069c0,1.85-1.463,3.211-4.309,3.211
			c-1.301,0-2.459-0.284-3.211-0.691L220.32,125.904z"/>
	</g>
</g>
</svg>
