<?xml version="1.0" encoding="utf-8"?>
<!-- Generator: Adobe Illustrator 17.0.0, SVG Export Plug-In . SVG Version: 6.00 Build 0)  -->
<!DOCTYPE svg PUBLIC "-//W3C//DTD SVG 1.1//EN" "http://www.w3.org/Graphics/SVG/1.1/DTD/svg11.dtd">
<svg version="1.1" id="Layer_1" xmlns="http://www.w3.org/2000/svg" xmlns:xlink="http://www.w3.org/1999/xlink" x="0px" y="0px"
	 width="300px" height="200px" viewBox="0 0 300 200" enable-background="new 0 0 300 200" xml:space="preserve">
<g id="Layer_2" display="none">
	<g display="inline">
		<path fill="#FFFFFF" d="M262,29c0-3.3129997-2.6879883-6-6-6H43c-3.3129997,0-6,2.6870003-6,6v104c0,3.3119965,2.6870003,6,6,6
			h213c3.3120117,0,6-2.6880035,6-6V29z"/>
		<path fill="none" stroke="#939FAC" stroke-width="2" stroke-miterlimit="10" d="M262,29c0-3.3129997-2.6879883-6-6-6H43
			c-3.3129997,0-6,2.6870003-6,6v104c0,3.3119965,2.6870003,6,6,6h213c3.3120117,0,6-2.6880035,6-6V29z"/>
	</g>
</g>
<path fill="#FFFFFF" d="M28.848526,166.807663c0,3.3032684,2.6799831,5.9832611,5.9821014,5.9832611l230.3375549,0.0000153
	c3.3044739,0,5.9832764-2.6799927,5.9832764-5.9832611l0.0000305-133.6153259c0-3.3032761-2.6776428-5.9832783-5.9832764-5.9832783
	L34.8306465,27.2090569c-3.302084,0-5.9821033,2.6800003-5.9821053,5.9832764L28.848526,166.807663z"/>
<path fill="none" stroke="#939FAC" stroke-width="2" stroke-miterlimit="10" d="M28.848526,166.807663
	c0,3.3032684,2.6799831,5.9832611,5.9821014,5.9832611l230.3375549,0.0000153c3.3044739,0,5.9832764-2.6799927,5.9832764-5.9832611
	l0.0000305-133.6153259c0-3.3032761-2.6776428-5.9832783-5.9832764-5.9832783L34.8306465,27.2090569
	c-3.302084,0-5.9821033,2.6800003-5.9821053,5.9832764L28.848526,166.807663z"/>
<line fill="none" stroke="#929FAB" stroke-width="2" stroke-miterlimit="10" x1="271.1508789" y1="45.6920662" x2="28.8491249" y2="45.6920509"/>
<circle fill="#929FAB" cx="41.7960663" cy="36.569397" r="2.4549191"/>
<circle fill="#929FAB" cx="50.7230453" cy="36.569397" r="2.4549191"/>
<circle fill="#929FAB" cx="59.6500244" cy="36.569397" r="2.4549191"/>
<line fill="none" stroke="#929FAB" stroke-width="2" stroke-miterlimit="10" x1="271.1508789" y1="123.6539764" x2="28.8491249" y2="123.6539612"/>
<line fill="none" stroke="#929FAB" stroke-width="2" stroke-miterlimit="10" x1="204.404129" y1="123.6539688" x2="204.404129" y2="172.7909393"/>
<line fill="none" stroke="#929FAB" stroke-width="2" stroke-miterlimit="10" x1="37.6436386" y1="137.2550049" x2="74.8986435" y2="137.2550049"/>
<line fill="none" stroke="#8ACEE0" stroke-width="2" stroke-miterlimit="10" x1="49.470623" y1="143.1685028" x2="99.3410797" y2="143.1685028"/>
<line fill="none" stroke="#929FAB" stroke-width="2" stroke-miterlimit="10" x1="49.470623" y1="149.0819855" x2="95.3987503" y2="149.0819855"/>
<line fill="none" stroke="#929FAB" stroke-width="2" stroke-miterlimit="10" x1="37.6436386" y1="154.9954834" x2="68.1966858" y2="154.9954834"/>
<line fill="none" stroke="#8ACEE0" stroke-width="2" stroke-miterlimit="10" x1="210.317627" y1="139.6204071" x2="234.9571838" y2="139.6204071"/>
<line fill="none" stroke="#8ACEE0" stroke-width="2" stroke-miterlimit="10" x1="210.317627" y1="145.5338898" x2="234.9571838" y2="145.5338898"/>
<line fill="none" stroke="#919FAA" stroke-width="2" stroke-miterlimit="10" x1="210.317627" y1="133.7069092" x2="259.9909668" y2="133.7069092"/>
</svg>
