<?xml version="1.0" encoding="utf-8"?>
<!-- Generator: Adobe Illustrator 17.0.0, SVG Export Plug-In . SVG Version: 6.00 Build 0)  -->
<!DOCTYPE svg PUBLIC "-//W3C//DTD SVG 1.1//EN" "http://www.w3.org/Graphics/SVG/1.1/DTD/svg11.dtd">
<svg version="1.1" id="Layer_1" xmlns="http://www.w3.org/2000/svg" xmlns:xlink="http://www.w3.org/1999/xlink" x="0px" y="0px"
	 width="300px" height="200px" viewBox="0 0 300 200" enable-background="new 0 0 300 200" xml:space="preserve">
<g>
	<path fill="#FFFFFF" d="M28.849,166.808c0,3.303,2.68,5.983,5.982,5.983l230.338,0c3.304,0,5.983-2.68,5.983-5.983l0-133.615
		c0-3.303-2.678-5.983-5.983-5.983l-230.338,0c-3.302,0-5.982,2.68-5.982,5.983L28.849,166.808z"/>
	<path fill="#9C9C9C" d="M265.168,173.291H34.831c-3.574,0-6.482-2.908-6.482-6.483V33.192c0-3.575,2.908-6.483,6.482-6.483h230.337
		c3.575,0,6.483,2.909,6.483,6.483v133.615C271.651,170.383,268.743,173.291,265.168,173.291z M34.831,27.709
		c-3.023,0-5.482,2.46-5.482,5.483v133.615c0,3.023,2.459,5.483,5.482,5.483h230.337c3.023,0,5.483-2.46,5.483-5.483V33.192
		c0-3.023-2.46-5.483-5.483-5.483H34.831z"/>
</g>
<g id="Layer_2" display="none">
	<g display="inline">
		<path fill="#FFFFFF" d="M262,29c0-3.313-2.688-6-6-6H43c-3.313,0-6,2.687-6,6v104c0,3.312,2.687,6,6,6h213c3.312,0,6-2.688,6-6V29
			z"/>
		<path fill="none" stroke="#939FAC" stroke-width="2" stroke-miterlimit="10" d="M262,29c0-3.313-2.688-6-6-6H43
			c-3.313,0-6,2.687-6,6v104c0,3.312,2.687,6,6,6h213c3.312,0,6-2.688,6-6V29z"/>
	</g>
</g>
<g>
	<path fill="#939FAC" d="M265.168,173.791H34.831c-3.85,0-6.982-3.133-6.982-6.983V33.192c0-3.851,3.132-6.983,6.982-6.983h230.337
		c3.851,0,6.983,3.133,6.983,6.983v133.615C272.151,170.658,269.019,173.791,265.168,173.791z M34.831,28.209
		c-2.747,0-4.982,2.235-4.982,4.983v133.615c0,2.748,2.235,4.983,4.982,4.983h230.337c2.748,0,4.983-2.235,4.983-4.983V33.192
		c0-2.748-2.235-4.983-4.983-4.983H34.831z"/>
</g>
<g>
	<rect x="28.849" y="44.692" fill="#929FAB" width="242.301" height="2"/>
</g>
<g>
	<circle fill="#929FAB" cx="41.796" cy="36.569" r="2.455"/>
</g>
<g>
	<circle fill="#929FAB" cx="50.723" cy="36.569" r="2.455"/>
</g>
<g>
	<circle fill="#929FAB" cx="59.65" cy="36.569" r="2.455"/>
</g>
<g>
	<polygon fill="#8ACEE0" points="67.598,91.188 58.128,84.611 60.411,81.326 66.563,85.6 73.143,75.938 76.45,78.188 	"/>
</g>
<g>
	<path fill="none" stroke="#9C9C9C" stroke-width="2" stroke-miterlimit="10" d="M154.89,87.427"/>
</g>
<g>
	<rect x="85.723" y="82.189" fill="#919FAA" width="145.11" height="2"/>
</g>
<g>
	<polygon fill="#8ACEE0" points="67.598,111.188 58.129,104.611 60.41,101.326 66.563,105.6 73.143,95.938 76.45,98.188 	"/>
</g>
<g>
	<rect x="84.723" y="104.189" fill="#919FAA" width="145.11" height="2"/>
</g>
<g>
	<polygon fill="#8ACEE0" points="67.598,133.188 58.129,126.611 60.41,123.326 66.563,127.6 73.143,117.938 76.45,120.189 	"/>
</g>
<g>
	<rect x="84.723" y="126.189" fill="#919FAA" width="145.11" height="2"/>
</g>
</svg>
