<?xml version="1.0" encoding="utf-8"?>
<!-- Generator: Adobe Illustrator 16.0.0, SVG Export Plug-In . SVG Version: 6.00 Build 0)  -->
<!DOCTYPE svg PUBLIC "-//W3C//DTD SVG 1.1//EN" "http://www.w3.org/Graphics/SVG/1.1/DTD/svg11.dtd">
<svg version="1.1" id="Layer_1" xmlns="http://www.w3.org/2000/svg" xmlns:xlink="http://www.w3.org/1999/xlink" x="0px" y="0px"
	 width="300px" height="200px" viewBox="0 0 300 200" enable-background="new 0 0 300 200" xml:space="preserve">
<g transform="translate(240 96)">
	<g id="icon-sass">
		<path fill="none" stroke="#929FAB" stroke-width="2" stroke-miterlimit="10" d="M-101.791-57.34
			c-12.684,2.854-24.416,8.245-35.516,15.221c-10.148,6.342-23.783,17.441-23.783,30.443c0,1.268,0.317,2.854,0.951,5.074
			c0.634,2.536,2.22,4.439,3.806,6.342c2.854,4.124,6.976,6.66,10.146,10.146c3.172,3.49,7.928,5.707,11.417,8.246
			c1.269,0.951,5.074,2.536,2.538,3.804c-2.855,1.27-5.708,3.171-8.562,4.756c-6.66,4.442-13.953,9.514-14.905,18.075
			c-0.633,5.707,1.904,12.369,8.246,12.369c6.025,0.316,12.685,0,17.441-4.122c5.073-4.441,8.879-9.197,10.148-16.175
			c0.634-3.486,0.634-6.977,0-10.464c-0.317-1.27-1.269-2.855-1.269-4.122c0-0.636,3.487-2.221,4.122-2.854
			c0.318-0.316,2.854-1.901,2.854-1.268c0,0.951-0.634,2.218-0.634,3.486c-0.317,3.172-0.952,6.026-0.635,9.197
			c0.318,3.172,0.951,5.708,2.536,8.561c1.585,3.489,3.806,4.125,7.294,3.806c4.123-0.635,6.342-7.927,7.927-11.098
			c0-0.316,0.318-0.636,0.318-0.951c0,1.271,0,2.854,0,4.122c0,1.27,0,2.22,0.316,3.489c0,0.632,0.952,0.951,0.952,1.268
			c0,2.221,4.123,1.27,5.075,0.634c2.535-1.585,4.121-4.121,5.389-6.657c4.44-8.246,8.561-16.49,12.052-25.369
			c0.634,3.486,1.904,6.658,3.489,10.146c1.268,2.539-0.318,3.806-2.223,6.026c-0.947,0.951-1.901,2.536-2.852,3.486
			c-1.905,1.586-6.023,6.027-5.392,8.882c0.635,2.536,4.44,2.217,6.342,1.901c3.806-0.636,7.611-2.221,10.783-4.756
			c1.586-1.271,2.854-3.488,3.171-5.707c0-1.905,0-3.807,0-5.708c0-1.586-0.954-2.855-1.27-4.125c0-0.633,1.27-2.217,1.585-2.852
			c0.636-0.952,1.271-1.905,1.901-3.172c0.639-0.951,4.441-8.246,5.076-7.928c0.95,0.635,0.95,3.172,1.585,4.438
			c0.636,1.585,1.267,3.489,2.221,4.756c0.95,1.586-4.125,5.392-5.073,6.661c-2.538,3.487-6.661,13.952,1.268,13.319
			c6.023-0.634,13.636-6.342,13.951-13.003c0-1.901-0.632-3.486-0.947-5.072c-0.319-0.952,1.9-1.585,2.853-1.585
			c2.534-0.951,5.706-0.636,8.562-0.636c6.343,0,13,1.586,16.807,7.612c1.905,3.172,1.586,7.294-0.951,9.83
			c-0.635,0.634-3.489,2.221-3.17,3.487c0.631,1.27,4.121-0.633,4.438-0.951c5.706-3.807,5.706-12.366,1.586-17.441
			c-5.072-6.342-13.32-8.878-21.248-8.243c-3.486,0.315-6.342,0.951-9.513,2.22c-2.853,1.268-4.438-3.489-4.757-6.026
			c-0.315-2.537-0.631-6.025,0.319-8.879c0.635-2.538,2.536-5.392-1.267-5.709c-1.904,0-6.026-0.634-7.297,0.952
			c-1.585,1.585-1.27,5.073-2.216,6.976c-2.224,5.39-5.396,10.466-8.248,15.537c-0.95-2.219-1.904-4.756-2.219-7.292
			c-0.316-3.171,0.634-6.025,1.585-8.879c0.315-0.953,0.634-1.27,0-2.22c-0.951-0.635-1.585-0.951-2.536-0.951
			c-2.854,0-6.343-0.317-7.294,2.536c-2.22,6.659-5.075,13.32-8.246,19.662c-2.219,4.756-4.123,10.148-6.977,14.585
			c0.318-4.121,0.951-7.928,2.22-11.733c0.634-2.535,1.902-5.388,1.902-8.242c0-2.537-3.488-2.221-5.073-2.221
			c0-5.392-0.951-9.83-7.294-8.562c-3.488,0.633-6.025,2.854-8.562,5.39c-3.171,3.172-6.658,5.393-10.782,7.613
			c-1.902,0.95-3.805,2.219-5.707,3.171c-1.585,0.951-1.903,0.636-3.171-0.636c-1.902-1.9-3.806-3.487-5.709-5.072
			c-5.072-4.125-11.098-7.927-14.27-13.319c-6.342-10.783,2.856-22.198,11.417-28.224c10.782-7.61,22.198-13.635,35.2-16.807
			c5.391-1.268,12.051-1.268,17.44-0.634c4.125,0.634,9.829,3.806,9.829,8.246c0.639,14.905-16.171,25.369-29.173,27.907
			c-6.342,1.268-12.685,2.219-18.709-0.953c-1.269-0.633-6.025-5.39-5.074-0.951c0.952,3.804,5.074,6.025,8.245,7.293
			c6.342,2.538,14.587,1.585,21.247,0c5.074-0.951,10.147-2.854,14.589-5.39c5.389-3.489,10.462-8.246,13.952-13.956
			c3.806-6.342,6.342-16.171,1.585-22.831c-3.806-5.392-10.148-8.563-16.489-9.514C-88.154-58.608-96.082-58.926-101.791-57.34z
			 M-95.448,8.621c-0.316,5.071-2.854,10.146-4.756,14.585c-0.951,2.536-1.901,5.073-3.171,7.612c-1.269,2.537-2.854,3.171-3.487,0
			c-1.27-5.711,0.951-12.368,3.804-17.44c1.269-2.221,2.538-4.126,4.44-5.711C-97.034,7.035-95.448,5.766-95.448,8.621z
			 M-45.661,21.621c-0.315,3.806-2.536,5.707-5.708,7.293c0.316-2.535,1.586-4.756,2.853-6.658
			C-47.247,20.035-45.346,17.499-45.661,21.621z M-126.526,26.062c1.269,6.975-1.585,13.635-6.659,18.073
			c-3.171,2.855-13.318,7.611-12.685-0.316c0.317-3.486,2.221-6.343,4.44-8.878c0.952-0.952,3.488-4.123,5.391-4.442
			c0.634,0,0.634-0.95,1.268-0.95c1.269,0,3.171-1.901,4.124-2.536C-129.697,26.693-126.526,23.522-126.526,26.062z"/>
	</g>
</g>
</svg>
