<?xml version="1.0" encoding="utf-8"?>
<!-- Generator: Adobe Illustrator 17.0.0, SVG Export Plug-In . SVG Version: 6.00 Build 0)  -->
<!DOCTYPE svg PUBLIC "-//W3C//DTD SVG 1.1//EN" "http://www.w3.org/Graphics/SVG/1.1/DTD/svg11.dtd">
<svg version="1.1" id="Layer_1" xmlns="http://www.w3.org/2000/svg" xmlns:xlink="http://www.w3.org/1999/xlink" x="0px" y="0px"
	 width="300px" height="200px" viewBox="0 0 300 200" enable-background="new 0 0 300 200" xml:space="preserve">
<g opacity="0.5">
	<path fill="none" stroke="#929FAB" stroke-width="2" stroke-miterlimit="10" stroke-dasharray="6.0842,6.0842" d="M112.031,118.367
		c0.192,1.088-0.535,2.125-1.622,2.317L40.98,132.926c-1.088,0.192-2.125-0.535-2.317-1.622L23.469,45.133
		c-0.192-1.088,0.535-2.125,1.622-2.317L94.52,30.574c1.088-0.192,2.125,0.535,2.317,1.622L112.031,118.367z"/>
</g>
<g opacity="0.5">
	<path fill="#FFFFFF" d="M118.671,117.087c0.096,1.1-0.718,2.07-1.818,2.167l-70.232,6.144c-1.1,0.096-2.07-0.718-2.167-1.818
		l-7.626-87.167c-0.096-1.1,0.718-2.07,1.818-2.167l70.232-6.144c1.1-0.096,2.07,0.718,2.167,1.818L118.671,117.087z"/>
	
		<path fill="none" stroke="#929FAB" stroke-width="2" stroke-linecap="round" stroke-linejoin="round" stroke-dasharray="6.0842,6.0842" d="
		M118.671,117.087c0.096,1.1-0.718,2.07-1.818,2.167l-70.232,6.144c-1.1,0.096-2.07-0.718-2.167-1.818l-7.626-87.167
		c-0.096-1.1,0.718-2.07,1.818-2.167l70.232-6.144c1.1-0.096,2.07,0.718,2.167,1.818L118.671,117.087z"/>
</g>
<g>
	<path fill="#FCFCFC" stroke="#929FAB" stroke-width="2" stroke-miterlimit="10" d="M125,125.5c0,1.105-0.895,2-2,2H52.5
		c-1.105,0-2-0.895-2-2V38c0-1.105,0.895-2,2-2H123c1.105,0,2,0.895,2,2V125.5z"/>
	<text transform="matrix(1 0 0 1 66.8344 87.6079)" fill="#8ACEE0" font-family="'MyriadPro-Regular'" font-size="20.3199">.scss</text>
</g>
<path fill="#FFFFFF" stroke="#929FAB" stroke-width="2" stroke-miterlimit="10" stroke-opacity="0.5" d="M129.991,97.135
	c0,0,22.322-10.036,37.631,10.865"/>
<polyline fill="none" stroke="#929FAB" stroke-width="2" stroke-miterlimit="10" stroke-opacity="0.5" points="161.657,108.633 
	168.656,108.72 168.743,101.72 "/>
<path fill="none" stroke="#929FAB" stroke-width="2" stroke-miterlimit="10" d="M155.375,151.396"/>
<g>
	<path fill="#FCFCFC" stroke="#929FAB" stroke-width="2" stroke-miterlimit="10" d="M250,166.5c0,1.105-0.895,2-2,2h-70.5
		c-1.105,0-2-0.895-2-2V79c0-1.105,0.895-2,2-2H248c1.105,0,2,0.895,2,2V166.5z"/>
	<text transform="matrix(1 0 0 1 195.8344 128.6079)" fill="#8ACEE0" font-family="'MyriadPro-Regular'" font-size="20.3199">.css</text>
</g>
</svg>
