<?xml version="1.0" encoding="utf-8"?>
<!-- Generator: Adobe Illustrator 17.0.0, SVG Export Plug-In . SVG Version: 6.00 Build 0)  -->
<!DOCTYPE svg PUBLIC "-//W3C//DTD SVG 1.1//EN" "http://www.w3.org/Graphics/SVG/1.1/DTD/svg11.dtd">
<svg version="1.1" id="Layer_1" xmlns="http://www.w3.org/2000/svg" xmlns:xlink="http://www.w3.org/1999/xlink" x="0px" y="0px"
	 width="300px" height="200px" viewBox="0 0 300 200" enable-background="new 0 0 300 200" xml:space="preserve">
<g id="Layer_2" display="none">
	<g display="inline">
		<path fill="#FFFFFF" d="M297-327c0-3.3129883-2.6879883-6-6-6H78c-3.3130035,0-6,2.6870117-6,6v104c0,3.3119965,2.6869965,6,6,6
			h213c3.3120117,0,6-2.6880035,6-6V-327z"/>
		<path fill="none" stroke="#939FAC" stroke-width="2" stroke-miterlimit="10" d="M297-327c0-3.3129883-2.6879883-6-6-6H78
			c-3.3130035,0-6,2.6870117-6,6v104c0,3.3119965,2.6869965,6,6,6h213c3.3120117,0,6-2.6880035,6-6V-327z"/>
	</g>
</g>
<path fill="none" stroke="#929FAB" stroke-width="2" stroke-miterlimit="10" d="M171.9230804,133.3557739h-43.3461609
	l6.4454803,26.332489l0,0C135.9847107,160.7803802,142.5046234,161.625,150.25,161.625s14.2652893-0.8446198,15.2276001-1.9367371
	l0,0L171.9230804,133.3557739z"/>
<path fill="#FFFFFF" stroke="#929FAB" stroke-width="2" stroke-miterlimit="10" d="M183.2307739,59.2275658h-65.9615402
	l9.808342,76.6567993l0,0c1.464386,3.179306,11.3859863,5.6380615,23.1724243,5.6380615s21.7080383-2.4587555,23.1724243-5.6380615
	l0,0L183.2307739,59.2275658z"/>
<ellipse fill="#FFFFFF" stroke="#929FAB" stroke-width="2" stroke-miterlimit="10" cx="150.25" cy="57.9794159" rx="32.9807701" ry="5.8715138"/>
<polyline fill="none" stroke="#8ACEE0" stroke-width="4" stroke-miterlimit="10" points="157.4082947,58.6158905 
	162.3429413,41.6378212 178.8333282,33 "/>
</svg>
