<?xml version="1.0" encoding="utf-8"?>
<!-- Generator: Adobe Illustrator 16.0.0, SVG Export Plug-In . SVG Version: 6.00 Build 0)  -->
<!DOCTYPE svg PUBLIC "-//W3C//DTD SVG 1.1//EN" "http://www.w3.org/Graphics/SVG/1.1/DTD/svg11.dtd">
<svg version="1.1" id="Layer_1" xmlns="http://www.w3.org/2000/svg" xmlns:xlink="http://www.w3.org/1999/xlink" x="0px" y="0px"
	 width="300px" height="200px" viewBox="0 0 300 200" enable-background="new 0 0 300 200" xml:space="preserve">
<g id="Layer_2" display="none">
	<g display="inline">
		<path fill="#FFFFFF" d="M262,29c0-3.313-2.688-6-6-6H43c-3.313,0-6,2.687-6,6v104c0,3.312,2.687,6,6,6h213c3.312,0,6-2.688,6-6V29
			z"/>
		<path fill="none" stroke="#939FAC" stroke-width="2" stroke-miterlimit="10" d="M262,29c0-3.313-2.688-6-6-6H43
			c-3.313,0-6,2.687-6,6v104c0,3.312,2.687,6,6,6h213c3.312,0,6-2.688,6-6V29z"/>
	</g>
</g>
<g>
	<g>
		<path fill="#FFFFFF" d="M274.278,28.187c0-2.793-2.266-5.059-5.058-5.059H74.464c-2.794,0-5.059,2.266-5.059,5.059v112.975
			c0,2.793,2.264,5.059,5.059,5.059h194.756c2.792,0,5.058-2.266,5.058-5.059V28.187z"/>
		<path fill="none" stroke="#939FAC" stroke-width="2" stroke-miterlimit="10" d="M274.278,28.187c0-2.793-2.266-5.059-5.058-5.059
			H74.464c-2.794,0-5.059,2.266-5.059,5.059v112.975c0,2.793,2.264,5.059,5.059,5.059h194.756c2.792,0,5.058-2.266,5.058-5.059
			V28.187z"/>
	</g>
	
		<line fill="none" stroke="#939FAC" stroke-width="2" stroke-miterlimit="10" x1="134.744" y1="167.297" x2="208.936" y2="167.297"/>
	<line fill="none" stroke="#929FAB" stroke-width="2" stroke-miterlimit="10" x1="69.406" y1="126.659" x2="274.278" y2="126.659"/>
	
		<line fill="none" stroke="#939FAC" stroke-width="2" stroke-miterlimit="10" x1="154.135" y1="147.061" x2="154.135" y2="166.981"/>
	
		<line fill="none" stroke="#939FAC" stroke-width="2" stroke-miterlimit="10" x1="189.545" y1="147.061" x2="189.545" y2="166.981"/>
</g>
<g>
	<g>
		<path fill="#FFFFFF" d="M124.568,177.294c1.692,0,3.062-1.371,3.062-3.061V56.313c0-1.691-1.37-3.062-3.062-3.062H56.166
			c-1.691,0-3.063,1.371-3.063,3.062v117.92c0,1.689,1.372,3.061,3.063,3.061H124.568z"/>
		<path fill="none" stroke="#939FAC" stroke-width="2" stroke-miterlimit="10" d="M124.568,177.294c1.692,0,3.062-1.371,3.062-3.061
			V56.313c0-1.691-1.37-3.062-3.062-3.062H56.166c-1.691,0-3.063,1.371-3.063,3.062v117.92c0,1.689,1.372,3.061,3.063,3.061H124.568
			z"/>
	</g>
	<line fill="none" stroke="#929FAB" stroke-width="2" stroke-miterlimit="10" x1="53.103" y1="63.194" x2="127.63" y2="63.194"/>
	<line fill="none" stroke="#929FAB" stroke-width="2" stroke-miterlimit="10" x1="53.103" y1="165.156" x2="127.63" y2="165.156"/>
</g>
<g>
	<g>
		<path fill="#FFFFFF" d="M59.821,166.648c0.94,0,1.702-0.764,1.702-1.704V99.368c0-0.94-0.761-1.704-1.702-1.704h-38.04
			c-0.94,0-1.705,0.763-1.705,1.704v65.576c0,0.94,0.764,1.704,1.705,1.704H59.821z"/>
		<path fill="none" stroke="#939FAC" stroke-width="2" stroke-miterlimit="10" d="M59.821,166.648c0.94,0,1.702-0.764,1.702-1.704
			V99.368c0-0.94-0.761-1.704-1.702-1.704h-38.04c-0.94,0-1.705,0.763-1.705,1.704v65.576c0,0.94,0.764,1.704,1.705,1.704H59.821z"
			/>
	</g>
	<path fill="none" stroke="#929FAB" stroke-width="2" stroke-miterlimit="10" d="M61.522,103.194"/>
	<path fill="none" stroke="#929FAB" stroke-width="2" stroke-miterlimit="10" d="M20.077,103.194"/>
	<line fill="none" stroke="#929FAB" stroke-width="2" stroke-miterlimit="10" x1="20.077" y1="159.897" x2="61.522" y2="159.897"/>
</g>
<g id="Reload">
	<g>
		<g>
			<g>
				<path fill="#8ACEE0" d="M191.017,95.514l-9.562-0.001c-0.488,0-0.958-0.192-1.303-0.538c-0.351-0.35-0.544-0.816-0.542-1.307
					v-9.561c-0.002-1.021,0.824-1.847,1.849-1.85c1.023,0.003,1.849,0.829,1.849,1.849v5.098l0.013-0.013
					c6.331-6.331,6.326-16.627-0.002-22.957c-3.064-3.064-7.141-4.753-11.478-4.757c-1.018,0-1.846-0.828-1.846-1.847
					c-0.002-1.023,0.824-1.85,1.846-1.847c5.324-0.003,10.327,2.072,14.091,5.836c7.771,7.771,7.773,20.414,0.004,28.184
					l-0.013,0.013l5.094-0.003c1.022,0.003,1.851,0.83,1.85,1.85C192.864,94.688,192.037,95.515,191.017,95.514z"/>
			</g>
		</g>
		<g>
			<g>
				<path fill="#8ACEE0" d="M171.846,97.64c-5.327,0.001-10.33-2.074-14.095-5.839c-7.77-7.77-7.77-20.411,0-28.181l0.013-0.014
					h-5.098c-1.02,0-1.846-0.826-1.849-1.849c0.003-1.022,0.829-1.85,1.849-1.85h9.562c0.489,0,0.961,0.196,1.308,0.542
					c0.346,0.346,0.543,0.818,0.543,1.308l-0.004,9.559c0,1.019-0.826,1.846-1.85,1.85c-0.511,0-0.971-0.207-1.307-0.543
					c-0.334-0.334-0.54-0.794-0.54-1.304v-5.098l-0.013,0.013c-6.329,6.33-6.326,16.626,0,22.952
					c3.069,3.069,7.144,4.759,11.476,4.759c1.021,0,1.85,0.83,1.85,1.85C173.691,96.814,172.865,97.641,171.846,97.64z"/>
			</g>
		</g>
	</g>
	<g>
		<g>
			<g>
				<path fill="#8ACEE0" d="M103.237,127.22l-6.417-0.001c-0.329,0-0.643-0.129-0.875-0.361c-0.235-0.234-0.365-0.548-0.363-0.878
					l-0.001-6.416c0-0.685,0.554-1.24,1.242-1.241c0.687,0.002,1.241,0.557,1.241,1.24v3.423l0.009-0.009
					c4.249-4.249,4.246-11.161-0.001-15.41c-2.057-2.057-4.793-3.188-7.703-3.191c-0.684,0-1.239-0.557-1.239-1.24
					c-0.002-0.687,0.553-1.24,1.239-1.238c3.573-0.002,6.931,1.392,9.458,3.918c5.215,5.215,5.218,13.702,0.002,18.917l-0.008,0.007
					l3.419-0.001c0.686,0.003,1.241,0.557,1.241,1.241C104.476,126.666,103.921,127.22,103.237,127.22z"/>
			</g>
		</g>
		<g>
			<g>
				<path fill="#8ACEE0" d="M90.37,128.647c-3.576,0-6.933-1.393-9.46-3.92c-5.215-5.216-5.214-13.698,0-18.913l0.009-0.01h-3.42
					c-0.685,0-1.24-0.556-1.241-1.241c0.001-0.686,0.556-1.241,1.241-1.241l6.416,0.001c0.33,0,0.645,0.131,0.878,0.363
					c0.232,0.233,0.364,0.549,0.363,0.878l-0.001,6.414c0,0.685-0.555,1.24-1.241,1.241c-0.342,0-0.653-0.138-0.877-0.363
					c-0.225-0.224-0.362-0.534-0.362-0.875l-0.001-3.422l-0.007,0.01c-4.249,4.248-4.246,11.158,0,15.404
					c2.059,2.06,4.794,3.193,7.702,3.193c0.684,0.001,1.241,0.559,1.241,1.24C91.609,128.093,91.054,128.647,90.37,128.647z"/>
			</g>
		</g>
	</g>
	<g>
		<g>
			<g>
				<path fill="#8ACEE0" d="M49.229,139.981l-4.202-0.003c-0.215,0.003-0.421-0.083-0.573-0.234
					c-0.153-0.154-0.239-0.359-0.238-0.575l-0.001-4.201c0-0.45,0.363-0.813,0.813-0.814c0.449,0.001,0.812,0.364,0.813,0.813
					l-0.001,2.242l0.007-0.007c2.783-2.783,2.781-7.311-0.001-10.091c-1.347-1.348-3.138-2.09-5.044-2.091
					c-0.447-0.002-0.811-0.365-0.812-0.812c0-0.451,0.362-0.812,0.812-0.812c2.34-0.002,4.538,0.91,6.193,2.565
					c3.415,3.415,3.417,8.974,0.001,12.389l-0.005,0.005l2.239-0.001c0.449,0.003,0.812,0.366,0.812,0.813
					C50.041,139.617,49.678,139.981,49.229,139.981z"/>
			</g>
		</g>
		<g>
			<g>
				<path fill="#8ACEE0" d="M40.801,140.916c-2.341,0.001-4.541-0.913-6.194-2.567c-3.416-3.415-3.416-8.972,0-12.387l0.005-0.005
					h-2.241c-0.447-0.001-0.811-0.365-0.812-0.812c0-0.45,0.365-0.814,0.814-0.814l4.201,0.002c0.216-0.002,0.422,0.086,0.574,0.238
					c0.152,0.151,0.239,0.357,0.239,0.574l0,4.199c-0.001,0.45-0.364,0.813-0.813,0.814c-0.225,0-0.427-0.091-0.576-0.239
					c-0.146-0.146-0.236-0.349-0.236-0.571v-2.241l-0.005,0.005c-2.783,2.781-2.782,7.309,0,10.09
					c1.348,1.348,3.141,2.091,5.044,2.091c0.448,0.001,0.812,0.365,0.812,0.812C41.614,140.553,41.25,140.916,40.801,140.916z"/>
			</g>
		</g>
	</g>
</g>
</svg>
